<?xml version="1.0" encoding="UTF-8"?>
<svg id="Layer_1" xmlns="http://www.w3.org/2000/svg" version="1.1" viewBox="0 0 1152.3 256">
  <!-- Generator: Adobe Illustrator 30.2.1, SVG Export Plug-In . SVG Version: 2.1.1 Build 1)  -->
  <defs>
    <style>
      .st0 {
        stroke: #262930;
      }

      .st0, .st1 {
        fill: none;
        stroke-miterlimit: 10;
        stroke-width: 7px;
      }

      .st0, .st1, .st2, .st3 {
        font-family: Helvetica-Bold, Helvetica;
        font-size: 300px;
        font-weight: 700;
      }

      .st1 {
        stroke: #6ad87c;
      }

      .st2, .st4 {
        fill: #262930;
      }

      .st3 {
        fill: #6ad87c;
      }
    </style>
  </defs>
  <text class="st2" transform="translate(511.6 236.7)"><tspan x="0" y="0">V</tspan></text>
  <text class="st0" transform="translate(209.4 236.7)"><tspan x="0" y="0">PI</tspan></text>
  <text class="st1" transform="translate(1.6 236.7)"><tspan x="0" y="0">S</tspan></text>
  <text class="st3" transform="translate(960.1 242.7)"><tspan x="0" y="0">T</tspan></text>
  <g>
    <path class="st4" d="M838.1,247c-14.9-.3-29.2-3.2-42.9-9.2-12-5.2-22.8-12.3-32.3-21.3-10.7-10.1-19.4-21.8-25.8-35.1-4.4-9.2-7.5-18.9-9-29-.5-3.7-.9-7.3-1.2-11-.2-2.8-.6-5.6-.6-8.3,0-2.1.2-4.2.4-6.3.2-2.1.3-4.3.5-6.4.5-6,1.5-12,3.2-17.8,3.7-12.5,9-24.2,16.4-35,3.2-4.6,6.8-9,10.7-13,9.9-10.1,21.2-18.1,33.9-24.1,9.2-4.3,18.8-7.3,28.8-8.9,4.4-.7,8.8-1.2,13.2-1.4,2-.1,4.1-.2,6.1-.2,6.9,0,13.6.7,20.4,2.1,15.6,3.2,29.8,9.4,42.9,18.3,10.9,7.4,20,16.7,27.5,27.5,8.6,12.2,14.5,25.6,17.8,40.1,1.2,5.2,2,10.4,2.5,15.6.4,4.3.6,8.6.5,13-.3,11.4-2,22.6-5.8,33.5-4.8,13.5-11.8,25.8-21.2,36.7-8.6,9.9-18.4,18.2-29.7,24.9-10.8,6.4-22.4,10.7-34.8,13.1-4.8.9-9.6,1.5-14.5,1.8-2.4.2-4.8.3-7.2.3ZM767.6,55.2c-.3,0-.4.2-.5.3-2,1.7-3.5,3.8-5.2,5.8-.9,1.2-1.2,2.1-.3,3.4,1,1.5,1.3,3.3.4,5-1.9,3.8-3.9,7.6-6.1,11.2-.8,1.3-1.6,2.5-2.4,3.8-.4.6-.3.9.4,1.2.5.2,1,.3,1.5.5,3,1.2,4.1,3.6,3.9,6.2-.1,2.2-.7,4.4-1.3,6.5-.7,2.5-1.4,5-1.4,7.7,0,1.9.7,3.4,2.2,4.6,3.7,2.8,5.1,6.6,4.5,11.2-.3,2.4-.6,4.9-.6,7.4,0,4.3,2.7,8.2,6.7,9.9,2.5,1,5.1.8,7.6.5,2.1-.3,4.2-.1,6.2.6,5.4,2,9.8,8.5,8.9,15.6-.4,3.1-.1,6.1,1.5,8.8,2.6,4.4,6.5,7,11.3,8.2,2,.5,4.1.5,6.1.8,5.6.8,10.3,3.3,13.6,8,1.8,2.5,2.5,5.4,2.1,8.5-.3,2.1-1,4-1.2,6.1-.3,2.5,0,4.9,1.7,6.9,4.1,4.9,9.5,6.8,15.8,5.8,4.6-.7,8.7.3,12.1,3.5,2.7,2.6,5.9,3.3,9.5,2.8,2.1-.3,4.1-1.1,6.1-1.8,1.6-.6,3.2-1.4,5-1.5,1.9-.1,3.7,0,4.7,1.9,1,1.9,2.6,2.5,4.6,2.6,3.5.2,6.5-.9,9.4-2.7,2.7-1.7,5.3-3.6,7.8-5.5,1.4-1.1,2.3-1.2,3.7-.1,1.6,1.2,3.2,1.1,4.8,0,3.4-2.1,6.2-4.8,8.8-7.8,3.4-3.9,6.3-8.1,9-12.5,4.8-7.7,8.6-15.9,11.2-24.6,1.9-6.3,3.1-12.8,3.7-19.4.4-4.3.6-8.6.4-13-.2-3.9-.5-7.8-1-11.7-.9-7.1-2.5-14-4.7-20.7-3.7-11.3-9.3-21.6-16.6-31-5.5-7-11.7-13.4-18.8-18.9-9.9-7.7-20.9-13.4-32.9-17.2-8.6-2.8-17.5-4.4-26.6-4.8-7.5-.3-14.9,0-22.2,1.4-8.1,1.4-16,3.6-23.5,7-.5.2-.9.4-1.5.7.8.3.4.5.2.8-2.1,1.8-4.5,3-7.1,3.8-.1,0-.3.1-.4,0,.3-.7,1-1,1.5-1.8-3.5,2.1-6.9,4-10.3,6,0,0-.1.1-.3.2,0,0,.2,0,.2.1.4.1.8.3,1.3.4,2.8.9,3.9,3.2,2.8,5.9-1.1,2.7-2.8,4.9-4.9,6.7-2.1,1.8-4.6,3-7.1,4-1.3.5-2.5.5-3.8,0-1.3-.6-2-1.9-1.8-3.3.2-1.2.5-2.3,1-3.4,0-.3.3-.5.2-.8ZM825.8,238.6c-4.4-.9-8.7-2-12.9-3.5-6.4-2.4-12.7-4.8-18.8-7.7-10.6-5.1-20-12-28.4-20.3-6.3-6.1-11.7-12.9-16.6-20.2-5.1-7.8-8.9-16.2-11.6-25.1-.6-2-1.1-4-1.7-6,0,.6,0,1.2,0,1.7-.1,1.8,0,3.7.4,5.5,1,6.2,3.2,12,6.1,17.6,7,13.5,16.3,25.4,28,35.1,9.1,7.6,19.3,13.3,30.5,17.3,5.7,2,11.7,3.1,17.6,4.4,2.4.5,4.8.9,7.3,1.1ZM783.8,164.4c-.2,0-.2,0-.3,0-2.6,0-4.2-1.2-5.2-3.5-1.4-3.3-2.9-6.6-4.4-9.9-.2-.5-.5-1-1-1.3-.8-.6-1.3-.4-1.5.5-.7,3.5-.3,6.8,1.5,9.8,1.4,2.4,3.3,4.1,6,4.9,1.6.5,3.2.4,4.9-.4ZM803.9,182.4c-1.5,1.9-1.8,4.6-1,7.2,1.4,4.4,4.6,6.9,8.9,8.1,2.7.8,5.5.8,8.2-.5.2-.1.5-.2.7-.5-.2,0-.3,0-.4,0-4.3.2-8.1-1.3-11.5-4-2.5-2-4.3-4.5-4.8-7.8-.1-.8,0-1.7,0-2.6ZM822.9,217.6c-9.4,0-16.6-3.6-20.3-12.7-.5,1-.7,2.1-.6,3.2.3,1.8,1,3.4,2.2,4.7,4,4.5,9.1,6.6,15.1,6.1,1.3,0,2.4-.6,3.5-1.4ZM832.2,216.7c-.3.2-.3.5-.4.7-.6,2.5,0,4.7,1.9,6.4,3.9,3.4,8.4,4,13.3,2.7,1.6-.4,3-1.2,4.3-2.5-1.6.4-3.1.8-4.7.9-2.9.2-5.7,0-8.3-1.3-3-1.4-5.5-3.3-6.1-6.8,0,0,0-.1-.1-.2ZM764.4,161.1c-1.1-.1-2-.3-2.9-.7-1.7-.8-3.1-1.9-4.3-3.4-2.2-2.7-3.8-5.7-3.8-9.3,0-1.1,0-2.2-.3-3.3-.3.4-.4.7-.6,1.1-1.2,3.4-.9,6.7.6,9.9,1.3,2.8,3.1,5,5.9,6.3,1.8.9,3.6.6,5.3-.6ZM779.5,192.7c-.4.3-.5.7-.6,1-.3,1.5-.2,2.9.3,4.3,1.5,3.9,4.3,6.7,8.1,8.4,1.7.7,3.5,1.4,5.4,1.3,1,0,2-.3,2.9-.9-.2,0-.2,0-.2,0-6.3-.7-11-4-14.4-9.3-.9-1.4-1.3-2.9-1.5-4.6ZM749.4,109.6c-.3,0-.5-.2-.7-.2-2.8-1-4.1-3-4.2-6,0-2.2.2-4.3.5-6.5.2-1.6.4-3.3.6-5-.4.4-.6.9-.8,1.3-1.6,3.4-2.9,6.9-2.7,10.7,0,1.8.3,3.6,1.5,5.1,1.3,1.8,4.1,2,5.8.5ZM906.3,214.2c-3.5,2.5-7.3,4.4-11.2,6-2.9,1.2-5.8,2.5-9,2.8-.6,0-.8.6-.4,1.1.6.8,1.4,1.3,2.3,1.6,1.4.4,2.6,0,3.7-.8,4.2-2.6,8.3-5.5,12.3-8.5.9-.6,1.7-1.4,2.4-2.3ZM746.5,161.5c-.8.9-1.3,1.9-1.3,3,0,1.7,0,3.4.3,5.1.8,4.8,2.8,8.9,6.3,12.3.9.9,2,1.5,3.3,1.8,1,.2,2.1.3,3.2-.5-2.7-.3-4.6-1.6-6.1-3.6-2.2-2.9-3.9-6-4.8-9.5-.6-2.1-1.2-4.2-1-6.4,0-.8.2-1.5.3-2.3ZM796.6,188.3c-.9,0-1.9,0-2.8-.3-3.8-1-6.7-3.3-9-6.4-2-2.8-3.2-5.8-2.8-9.3,0-.2,0-.4,0-.6,0-.2-.1-.4-.3-.4-.3,0-.3.2-.4.4-.4,1.8-.7,3.7-.3,5.6,1.2,5.9,4.9,9.6,10.4,11.6,1.7.6,3.6.5,5.2-.5ZM755.4,134.7c0,0,0,0,0,0-.1,0-.2,0-.3,0-1.7,0-3-.6-4.1-1.9-1.2-1.3-2-2.9-2.6-4.5-1.1-3.2-1.1-6.4-.7-9.7,0-.4.2-.9,0-1.4-.1.2-.2.4-.3.5-.8,2.1-1.6,4.2-1.8,6.5-.3,3.6.4,6.9,2.7,9.7,1.7,2.2,4.8,2.6,7.1,1ZM759.8,188.6c-.6,1.4-.6,2.9,0,4.3,1.4,3.2,3.3,6.1,5.9,8.4,2.1,1.8,4.4,3.2,7.1,4.1.9.3,1.9.4,3-.1-3.8-1.6-7.1-3.6-9.9-6.4-2.8-2.9-4.8-6.3-6-10.1ZM762.8,168.7c-.6,1-.8,1.9-.9,2.8-.1,3.1.7,6,2.5,8.5,1.9,2.7,4.3,4.6,7.5,5.5,1.4.4,2.7.2,4-.6-4-.4-6.9-2.6-9.4-5.6-2.5-3-3.6-6.5-3.7-10.6ZM738.1,139.9c-.5.5-.7,1.1-.7,1.6-.2,1.7-.2,3.4,0,5.1.4,4,2.1,7.5,4.8,10.5.5.6,1.2,1,2,1.1.9.2,1.7,0,2.4-.6-2.4-.7-3-1.2-4.3-3.2-2.4-3.7-3.8-7.7-3.9-12.2,0-.7,0-1.5-.3-2.4ZM875.4,226.2c0,0,0,0-.1,0-.2,0-.5.2-.7.3-3.8,1.9-7.7,2-11.8,1-1.7-.4-2.8-1.5-3.1-3.3,0-.2,0-.4-.2-.4-.2,0-.3.2-.4.3-1.1,2-.3,4.4,2,5.3,1.2.5,2.5.7,3.8.8,2.9,0,5.5-.7,8-2.1.9-.5,1.7-1.1,2.4-1.9ZM854.2,235.4c-.4,0-.6.1-.9.2-3.5,1.3-7.2,1.5-10.9.9-2.7-.4-5.3-1.1-7-3.5-.2-.3-.5-.2-.7,0-.4.5-.3,1.3.2,1.9.8,1,1.9,1.7,3.2,2.2,3.1,1.1,6.3,1.7,9.6,1.2,1.8-.3,3.6-.6,5.2-1.6.5-.3,1-.7,1.3-1.4ZM799.5,224c0-.2-.2-.1-.3-.2-3.4-.5-6.6-1.7-9.5-3.5-3.1-2-5.7-4.7-7.7-7.8-.1-.2-.2-.4-.5-.3-.2,0-.2.3-.2.5,0,1,.2,1.9.8,2.7,3.6,4.8,8.1,8.1,14.3,8.7,1,.1,2.1.2,3.2-.2ZM735.3,114.6c0,.2,0,.3-.1.4-1,4.7-1,9.4-.5,14.1.1,1.1.6,2.1,1.4,2.9,1.1,1.1,2.7,1.1,3.7,0,0,0,.2-.2.2-.3,0-.2-.2-.2-.3-.2-1.6-.2-2.6-1.2-3.3-2.5-.6-1.1-.8-2.4-.8-3.6,0-3.5.2-7.1-.3-10.7ZM825.4,232.4c-1.4-.1-2.7,0-4.1-.2-2.5-.2-5-.8-7.2-1.9-2.6-1.3-4.7-3.1-6.5-5.3-.1-.2-.3-.4-.5-.3-.3,0-.3.3-.3.6,0,.4.1.8.3,1.2.9,1.7,2.3,2.9,3.9,3.9,2.7,1.6,5.6,2.5,8.7,2.7,1.9.1,3.8,0,5.7-.7ZM749.8,76.5c-.5.4-.8,1-1.2,1.5-1.3,2-2.5,4-2.9,6.4,0,.4,0,.7.3.9,1,.6,2.2,0,2.2-1,0-2.5.5-5,1.6-7.3,0-.1.1-.3,0-.5Z"/>
    <g>
      <path class="st4" d="M771.4,88.4c2.4,0,4.1,1.2,5.3,3.1,1.5,2.3,1.8,4.8,1.5,7.4-.4,3.3-1.7,6.2-3.8,8.8-1.8,2.1-4.2,3.4-6.9,3.8-2,.3-3.9-.9-4.7-2.8-.5-1.4-.6-2.8-.6-4.2,0-2.2.2-4.4.5-6.6,0-.9-.1-1.7-.1-2.5,0-1.2.4-2.4,1.4-3.2,1.9-1.6,3.9-3.1,6.4-3.6.3,0,.7,0,1,0Z"/>
      <path class="st4" d="M782.6,126.7c-.1,4.8-2.2,8.7-6.2,11.4-1,.7-2.2,1.1-3.5,1.1-1.2,0-1.5-.3-1.7-1.4-.6-3.1-1.2-6.3-1.9-9.4-.4-1.8-.8-3.7-1.2-5.5-.3-1.3-.9-1.7-2.2-1.6-.6,0-.9-.2-.7-.7,1.4-2.7,3.1-5.1,6.2-6,3.2-1,5.9.1,8,2.6,1.9,2.1,2.7,4.6,3,7.4,0,.7.2,1.5.1,2.2Z"/>
      <path class="st4" d="M845.6,171.8c0,5.3-3.5,10.2-8.5,11.9-.2,0-.5.3-.7,0-.2-.3,0-.5.3-.7,1.9-2.3,2.4-4.8,1.1-7.5-2.1-4.7-5.9-7.2-10.9-7.9-1.8-.3-3.5,0-5.2.6-.3,0-.6.3-.8,0-.2-.2,0-.5,0-.7.8-2.3,2-4.4,3.9-5.9,1.6-1.3,3.6-1.9,5.6-2.2,6.1-.7,10.6,1.9,13.8,7,1,1.6,1.4,3.5,1.4,5.4Z"/>
      <path class="st4" d="M817.9,161.1c0,3.8-1.4,7-4.2,9.5-1.5,1.3-3.2,1.8-5.2,1.8-.3,0-.5,0-.7-.3s0-.5.2-.7c1.2-1.6,2-3.4,1.8-5.4-.5-4.7-2.9-8.3-7-10.6-2.3-1.3-4.6-1.9-7.2-1.5-.7.1-.9-.2-.6-.9,1.5-3.1,4.1-5,7.5-5.6,5.2-1,10.7,1.8,13.4,6.5,1.4,2.4,1.9,4.4,1.9,7.1Z"/>
      <path class="st4" d="M762.8,74.2c-.9,0-1-.1-.7-.8,1.9-4.2,5-7,9.7-7.6,2.9-.4,5.4,1.7,5.8,4.6.3,2.5-.4,4.8-1.4,7-1.8,3.7-4.6,6.6-8.4,8.3-1.4.6-2.8.7-4.2.6-1.7-.1-2.9-1.5-3-3.3,0-1.3.2-2.6.6-3.8.3-.8.6-1.7.9-2.5.3-.8.6-1.6.9-2.5Z"/>
      <path class="st4" d="M809.8,129.9c0,6.4-4.7,12.2-10.9,13.5-.4,0-.7.2-.9-.2-.2-.3.1-.5.3-.7,4.7-4.3,4.9-10.9.7-15.6-1.5-1.7-3.3-3.2-5.6-3.8-1.6-.4-3.2-.2-4.7.5-.3.1-.6.5-.9.1-.3-.3,0-.7.2-.9,2-2.9,4.6-4.8,8.1-5.4,5.4-1,12,3.1,13.4,9.8.2.9.3,1.8.3,2.7Z"/>
      <path class="st4" d="M793.4,112.6c-.4,0-.8,0-1.3,0-1-.1-1.3-.6-1-1.6.4-1.2.8-2.5,1-3.8.5-2.9.4-5.9-.6-8.7-.7-1.9-2.5-2.8-4.4-2.2-1,.4-1.7,1.2-2.3,2-.2.3-.4.6-.8.8-.4.1-.6,0-.7-.4,0-.4,0-.8.2-1.2,1.6-3.4,4-5.9,7.8-6.7,4.1-.9,7.3.7,9.7,4,3.3,4.4,2.8,10.5-1.1,14.5-1.4,1.5-3,2.7-5.1,3.1-.5,0-1,0-1.5,0Z"/>
      <path class="st4" d="M824.6,128.3c6.3,0,11.5,4.3,12.3,10.4.8,5.3-1.2,9.8-6.6,12.4-1.7.8-3.5,1.4-5.4,1.8-.2,0-.4.2-.6,0,0-.2.1-.4.3-.5.5-.4,1.1-.9,1.6-1.3,2.6-2.3,3.1-5.2,2.5-8.4-1-4.6-5-8.3-9.6-8.9-1.4-.2-2.7.2-3.9.7-.3.1-.6.3-.9.4s-.3.2-.5,0c-.2-.2,0-.4,0-.6s.2-.4.3-.5c2.1-3.1,5-4.8,8.7-5.4.6,0,1.3-.2,1.8-.1Z"/>
      <path class="st4" d="M889.7,213.3c-2,0-4-.5-5.8-1.5-.9-.5-1.9-1-2.9-1.4-.5-.2-.6-.5-.5-1,.3-1,.8-1.9,1.5-2.7,2.1-2.4,4.3-4.6,7.1-6.2,2.6-1.4,5.3-2.4,8.2-2.2,2.1.1,3.9.8,5,2.8.9,1.5.9,3.1,0,4.6-2.8,4.7-7.1,7.1-12.5,7.7-.1,0-.2,0-.3,0Z"/>
      <path class="st4" d="M836.2,193.6c-3.7,0-5.9.8-7.7,2.6-.2.2-.3.4-.6.2-.2-.1-.1-.4,0-.6.3-2.2,1.4-3.9,3.1-5.3,2.3-2.1,4.9-3.4,8-3.7,6.2-.8,12.1,3.4,13.2,9.4.8,4.4-.9,7.8-4.1,10.7-1,.9-2.1,1.4-3.3,1.9-.2,0-.4.2-.6,0-.2-.2,0-.4.2-.5.8-1,1.5-2,1.8-3.2.5-2.4-.2-4.5-1.5-6.4-2.3-3.3-5.6-4.8-8.4-4.9Z"/>
      <path class="st4" d="M873.3,181.3c0,2.9-1.1,5.3-2.9,7.3-1.3,1.4-2.7,2.6-4.6,3.2-.2,0-.6.3-.8,0-.2-.3.1-.5.3-.6,1.3-1.6,2.2-3.3,1.8-5.4-.4-2.6-1.6-4.7-3.7-6.3-3.2-2.5-6.8-3.4-10.8-2.2-1.2.4-2.2,1-3.1,1.9-.2.2-.4.5-.7.4-.3-.2-.2-.6-.1-.8.3-1.4.8-2.6,1.7-3.7,2.3-2.7,5.1-4.6,8.7-5,4.6-.6,10.6,1.3,13,6.3.8,1.6,1.1,3.3,1.2,4.9Z"/>
      <path class="st4" d="M853.3,139.4c4.8-.2,9,3.3,10.8,7.6,2.6,6.5-.8,14.3-7.2,16.4-.2,0-.5.2-.7.2-.2,0-.5.1-.6,0-.2-.2,0-.4.2-.6.6-.6,1.1-1.2,1.5-1.9.8-1.1,1.3-2.3,1.6-3.7.3-1.7,0-3.3-.7-4.8-1.6-3.6-4.2-6-8.3-6.7-2.3-.4-4.5.2-6.6,1.1-.4.2-.9.4-1.3.7-.2.1-.5.3-.7,0s0-.5,0-.7c1.3-2.9,3.4-5,6.4-6.3,1.8-.8,3.7-1.3,5.7-1.3Z"/>
      <path class="st4" d="M801.6,75.2c0,5.6-4.2,10.1-9.8,10.7-1.3.1-2.6,0-3.9-.4-.3,0-.6-.2-.7-.5,0-.4.3-.6.6-.8,2.3-.9,3.2-2.7,3.5-5,.3-2,.4-4.1.3-6.1,0-2.1-1.8-3.1-3.7-2.3-.6.3-1.1.6-1.5,1-.8.8-1.7,1.6-2.5,2.3-.3.3-.7.7-1.2.4-.5-.3-.4-.8-.2-1.3.8-2,2.1-3.5,3.9-4.6,2.5-1.5,5.1-2.3,8.1-1.8,4.3.7,7,4,7,8.4Z"/>
      <path class="st4" d="M840.9,115.4c-1.8,0-3.5.4-5.1,1.4-.2.1-.4.4-.6.2-.3-.2,0-.5.1-.7,2.4-4.4,7.6-6.8,12.5-5.8,5.4,1.1,9.1,5.2,9.6,10.7.5,5-2.3,10-6.6,12.1-.8.4-1.6.6-2.4.7-.2,0-.5.1-.6-.1,0-.2.1-.3.3-.4,1-1,1.9-2.1,2.7-3.3,1.8-2.7,1.5-5.4.3-8.1-1.8-4.2-5.6-6.6-10.2-6.6Z"/>
      <path class="st4" d="M807.5,101.7c.1-.6.4-1,.7-1.5,2.7-4,9.3-7,14.9-4.4,4.1,1.9,6.3,5.1,6.8,9.5.7,6.3-3.4,11.2-8,13.2-.7.3-1.4.4-2.1.5-.1,0-.3,0-.4,0-.1-.2,0-.3.2-.4.8-.6,1.6-1.3,2.3-2.1,2.6-3,3.1-6.4,1.8-10-1.6-4.5-5.4-7-10.1-6.7-1.9,0-3.7.8-5.3,1.8-.2.1-.4.3-.7.3Z"/>
      <path class="st4" d="M882.3,149c3.9,0,7.1,2.4,8.6,6.3,2,5.3.2,12.3-4.1,16-.1,0-.2.2-.3.2-.2,0-.3.2-.5,0-.1-.1,0-.3,0-.4,1-2.1,1.6-4.3,1.4-6.6-.2-4.4-3.7-8.6-8-9.3-2.7-.4-5.1.6-7.2,2.2-.8.6-1.5,1.4-2.2,2.1-.1.1-.2.3-.4.2-.2,0-.1-.3-.1-.4,0-.3,0-.6.2-.9,2-5.2,5.8-8.2,11.1-9.3.4,0,.9,0,1.3,0Z"/>
      <path class="st4" d="M898.1,184.5c0,3.3-1.3,6.1-3.4,8.7-.5.6-.9,1.1-1.5,1.6-.3.3-.6,1-1.1.6-.5-.3,0-.8.2-1.2.4-1,.8-1.9.9-2.9.4-4-2.7-7.2-6.3-7.8s-6.5.7-9,3c0,0-.1.1-.2.2-.2.2-.4.4-.7.2-.3-.2-.1-.5,0-.7,1.4-2.4,2.9-4.6,5.1-6.3,1.7-1.4,3.6-2.5,5.8-2.9,2-.4,3.9-.4,5.8.4,2.9,1.2,4.3,3.5,4.4,6.6,0,.2,0,.5,0,.7Z"/>
      <path class="st4" d="M874,119.1c5.1-.2,9.9,5,10.4,10.1.3,3.5-.3,6.8-2.3,9.7-.9,1.3-2.1,2.4-3.5,3.2-.1,0-.2.1-.4.2-.2,0-.4.2-.5,0-.1-.2,0-.3.2-.4.5-.7,1-1.4,1.5-2.2,2.1-3.9,1.5-8.3-1.5-11.8-1.7-2-3.7-3.4-6.3-3.8-2.4-.4-4.6.2-6.8,1.1-.4.2-.8.4-1.2.6-.2,0-.4.3-.6,0-.2-.2,0-.4,0-.6.7-1.4,1.7-2.6,2.9-3.6,2.1-1.6,4.5-2.4,7.9-2.5Z"/>
      <path class="st4" d="M836.5,85.3c-1.6,0-3.1.2-4.6.7-.2,0-.4.2-.6,0-.2-.2.1-.4.2-.5,3.7-3.8,9.5-5,14.3-3,4.1,1.7,6.7,5.7,6.7,10,0,4.4-3.4,8.8-7.6,10.1-.2,0-.4.2-.5,0,0-.2,0-.3.2-.5.5-.4,1-.8,1.4-1.3,1.1-1.1,1.7-2.5,1.8-4.1.7-7.2-6-11.8-11.4-11.5Z"/>
      <path class="st4" d="M817.8,65.6c3.2,0,5.9,1,8,3.3,3,3.3,3.1,6.9.9,10.9-1.4,2.5-3.7,4-6.4,4.9-.3.1-.7.3-.8,0-.2-.3.2-.6.4-.8.4-.4.9-.8,1.3-1.2,2.8-3.1,2.4-7.2,0-10.1-1.6-1.9-3.7-2.9-6.3-3.1s-4.9.3-7.3,1.1c-.3.1-.8.4-.9,0-.2-.4.3-.6.5-.8,2.6-2.4,5.8-3.8,9.3-4.3.5,0,1,0,1.4,0Z"/>
      <path class="st4" d="M915.5,158.1c.2,4.1-1.5,7.5-4,10.6-.1.2-.3.4-.5.3-.2-.1,0-.4,0-.6.3-.9.8-1.7,1.1-2.6,1.1-3.6.3-6.8-2-9.5-2.4-2.8-6.8-2.6-9.6.3-.9,1-1.7,2.1-2.4,3.3-.2.3-.3.7-.7.6-.3-.1-.1-.6,0-.8.8-4.5,3-8,6.9-10.4,3.9-2.4,7.5-.9,9.6,2.3,1.3,2,1.7,4.3,1.6,6.6Z"/>
      <path class="st4" d="M911.7,174.6c3.6,0,5.7,2,5.9,4.7.3,3.9-1.3,7.2-3.7,10.1-.3.3-.5.6-.8.9-.1.1-.3.3-.5.2-.2-.1-.2-.3-.1-.5.2-.6.4-1.3.6-1.9.3-1.1.5-2.2.3-3.4-.5-2.3-2.7-3.6-5.2-3-2.9.7-5,2.4-6.5,5-.2.3-.4.7-.6,1,0,.1-.2.4-.4.3-.2,0-.1-.3,0-.5,0-.2,0-.4.1-.5,1-3.4,2.7-6.6,5.2-9.1,1.8-1.9,3.9-3.1,5.8-3.2Z"/>
      <path class="st4" d="M861.4,198.7c-.4,0-.9,0-1.3,0-.2,0-.4,0-.4-.3,0-.2.1-.3.3-.4,4.2-1.6,8.4-2.4,12.5,0,1.7,1,3.1,2.3,3.7,4.3.7,2.4,0,4.4-1.6,6.1-1.8,2.1-4.2,3.1-6.9,3.6-.5,0-1.1.2-1.6.2-.3,0-.7.2-.8-.2-.1-.4.3-.5.5-.6.9-.5,1.8-.9,2.5-1.7,2-2.2,1.8-5.8-.4-8.2-1.7-2-4-2.7-6.6-2.7Z"/>
      <path class="st4" d="M864.6,92.9c-.7,0-1.3,0-2,.1-.1,0-.3,0-.4-.1,0-.2,0-.3.2-.3,0,0,.1,0,.2-.1,3.8-1.8,7.7-2.4,11.7-.9,3.9,1.5,6.1,4.6,6.9,8.6.9,4.7-.9,8.3-4.7,10.9-.4.3-.9.5-1.3.8-.2.1-.5.3-.7,0-.3-.3,0-.5,0-.7.1-.2.3-.3.4-.5,1.3-1.6,2.3-3.3,2.5-5.4,0-.7,0-1.5-.1-2.1-1.2-4.9-3.9-8.4-9-9.8-1.2-.3-2.5-.4-3.7-.4Z"/>
      <path class="st4" d="M898.7,121c4,.2,6.6,1.9,7.9,5.3,2.4,5.7,1.7,11.1-2.2,16-.2.2-.4.5-.7.3-.3-.2-.2-.5,0-.8.8-1.4,1.4-3,1.6-4.6.5-4.1-.9-7.6-4.1-10.2-3-2.4-7.2-2-10.2.6-.3.3-.6.6-.9.8-.2.1-.3.4-.6.3-.3-.2-.1-.5,0-.7.2-.5.3-.9.5-1.4,2-3.5,5.1-5.2,8.6-5.6Z"/>
      <path class="st4" d="M926.5,190.1c-.1,1-.6,1.9-1.3,2.5-2.1,2-4.4,3.8-6.6,5.8-3.1,2.9-6.7,4.9-10.7,6.2,0,0,0,0-.1,0-.3,0-.6.3-.9,0-.3-.3,0-.6.2-.9.9-1.3,1.9-2.6,2.9-3.8,3.4-4.3,7.5-7.9,12.4-10.5.8-.4,1.6-.7,2.5-.8,1-.1,1.8.5,1.7,1.4Z"/>
      <path class="st4" d="M795.8,49.8c-.8,0-1.5,0-2.2.1-.3,0-.6,0-.6-.3,0-.3.2-.4.4-.5,2.3-1.1,4.8-1.9,7.4-2,1.1,0,2.2.2,3.2.6,2.4,1,3.6,3.2,3,5.7-.8,3.2-2.9,5.3-5.7,6.9-2.4,1.3-5.1,2-7.8,2.4-.3,0-.7.1-1,.2-.3,0-.6.1-.7-.2-.1-.4.2-.5.5-.6.7-.3,1.5-.6,2.2-.9,2.2-1,4.2-2.3,5.6-4.4.6-1,1.1-2.1,1-3.3-.2-1.9-1.5-3.2-3.5-3.4-.6,0-1.2-.1-1.6-.1Z"/>
      <path class="st4" d="M842.7,61.7c-.6,0-1.2,0-1.8,0-.2,0-.5,0-.6-.2,0-.3.2-.4.3-.5,1.5-1.1,3.1-1.7,4.9-1.9,3.6-.5,7,.2,9.8,2.5,2.2,1.7,3.4,4,3.3,6.8-.1,2.5-1.4,4.4-3.1,6-.7.7-1.6,1.3-2.5,1.7-.2.1-.5.4-.8.1-.2-.3.1-.5.3-.7.6-.7,1.3-1.4,1.6-2.3,1.2-2.7.6-5.2-1.3-7.4-2.7-3.1-6.2-4.4-10.3-4.3Z"/>
      <path class="st4" d="M907.6,105.6c0,1.6-.4,4.3-2.1,6.6-.5.7-1.1,1.4-1.8,1.9-.2.1-.4.5-.6.3-.3-.2,0-.5.1-.8.2-.5.5-.9.7-1.4,1.9-4.2,1.4-8.1-1.3-11.9-1.5-2.2-3.4-3.9-6.1-4.4-1.5-.3-2.9-.2-4.4,0-.4,0-1,.3-1.2,0-.2-.4.4-.7.7-.9,1.3-1.2,2.8-2.2,4.6-2.5,2.5-.4,4.7.4,6.6,1.9,3.2,2.5,4.8,5.8,4.7,11.1Z"/>
      <path class="st4" d="M887.1,79.2c0,3.5-1.7,6.2-4.5,7.4-.2,0-.5.3-.7,0-.2-.3.1-.5.3-.7,2.2-2.8,2.4-6,.4-9-2.8-4.1-6.7-6.4-11.7-6.9-.4,0-.8,0-1.2-.1-.2,0-.6,0-.6-.3,0-.3.3-.4.5-.5,1.1-.4,2.2-.7,3.4-.9,2.6-.3,5.1-.1,7.5.9,3.7,1.6,6.7,6.1,6.7,10Z"/>
      <path class="st4" d="M923.6,130c0-2.6-.9-4.9-2.5-7-1.6-2.1-4.4-2.7-6.9-1.6-.7.3-1.3.8-2,1.2-.3.2-.5.3-.8,0-.2-.2,0-.5,0-.7,1.1-1.3,2.1-2.6,3.4-3.7,3-2.5,6.4-2.2,8.7.9,3,3.9,3.4,8.2,1.7,12.8-.6,1.5-1.3,2.9-2.5,3.9-.2.2-.4.5-.7.3-.2-.2,0-.5.1-.8.8-1.7,1.3-3.5,1.2-5.4Z"/>
      <path class="st4" d="M821,60.6c-.7,0-1.4,0-2-.2-.2,0-.5,0-.5-.3,0-.2.3-.3.5-.4.3-.1.6-.2.9-.3,2.3-.6,4.5-1.4,6.1-3.3.7-.8,1.2-1.7,1.3-2.9.2-2.1-.9-3.6-2.7-4.6-.9-.5-1.8-.7-2.8-1-.4-.1-1-.2-1-.6,0-.3.6-.2,1-.3,1.5-.3,3-.6,4.5-.6,3.2,0,5.8,2.2,6.2,5.3.3,2.5-.8,4.4-2.6,6-2,1.7-4.3,2.5-6.9,2.8-.7,0-1.4.2-2.1.1Z"/>
      <path class="st4" d="M808.6,43.7c-.4,0-.8,0-1.2,0-.2,0-.4,0-.5-.2,0-.3.1-.4.3-.5.7-.3,1.5-.6,2.2-.9,1.3-.5,2.6-1.1,3.9-1.8,1.4-.8,2.1-1.9,1.9-3.3-.2-1.4-1.1-2.4-2.6-2.7-1.8-.4-3.5-.5-5.3-.7,0,0-.2,0-.3,0-.2,0-.5,0-.5-.3,0-.3.3-.3.5-.4,2.4-.6,4.8-1.3,7.2-1.7,2.2-.4,4.8,1.2,5.7,3.3.9,2.2.3,4.4-1.6,6.1-2.2,1.8-4.7,2.7-7.5,3-.7,0-1.4.2-2.1.1Z"/>
      <path class="st4" d="M908.7,78.9c-.1,2.2-.6,4.2-2.2,5.8-.4.4-.8.7-1.3.9-.2,0-.4.2-.6,0-.2-.2,0-.4,0-.6.5-.9,1-1.8,1.2-2.7.4-1.7.3-3.3-.5-4.8-2.1-4.6-5.7-7.3-10.8-7.7-.1,0-.2,0-.3,0-.2,0-.5,0-.5-.4,0-.3.1-.4.3-.5,2.1-1.5,4.3-2,6.7-1.1,3.9,1.3,6.2,4.1,7.4,7.9.3,1.1.5,2.2.6,3.3Z"/>
      <path class="st4" d="M926.2,100.7c0,1.2,0,2.5-.5,3.8-.4,1.3-1.2,2.4-2.2,3.2-.3.3-.6.5-1,.6-.3,0-.6.3-.8,0-.2-.2.2-.5.3-.7,1.6-2.6,1.9-5.3,1.2-8.2-.9-3.6-2.7-6.7-6.1-8.6-.9-.5-1.8-.8-2.8-1.1-.2,0-.4,0-.4-.3,0-.2.2-.2.3-.3,2.5-1.4,5.5-1,7.7,1.1,3,2.8,4.3,6.2,4.2,10.4Z"/>
      <path class="st4" d="M930.6,151.6c0-1.1.1-2.4-.1-3.6,0-.5-.3-.9-.5-1.4-.8-1.6-2.4-2.3-4.1-1.6-1.4.5-2.4,1.5-3.4,2.5-.3.3-.6.6-.9.9-.1.1-.3.3-.5.2-.3-.1-.2-.4,0-.6.5-1.7,1.2-3.4,2.3-4.8.8-1,1.7-1.8,2.8-2.3,2.4-1.3,5.2-.3,6.3,2.4,1.2,3,1.2,6.1.2,9.2-.3.9-.7,1.8-1.2,2.7-.1.2-.3.5-.6.4-.3,0-.2-.4-.2-.6,0-1,0-2.1,0-3.3Z"/>
      <path class="st4" d="M850.7,53.6c.3-.4.6-.7.9-1,1.9-2.2,1.6-4.7-.8-6.4-1.5-1.1-3.3-1.5-5.1-1.8-1.7-.3-3.5-.5-5.3-.3-.4,0-.8,0-1.2,0-.2,0-.4,0-.4-.2,0-.2.1-.3.2-.4,0,0,.1-.1.2-.2,4-2.2,8.1-2.5,12.3-.5,2.2,1.1,3.6,2.9,3.9,5.4.3,2.5-1.5,5.1-4,5.6-.2,0-.4,0-.7,0Z"/>
      <path class="st4" d="M871.2,48c4.5.4,8.1,2.3,10.3,6.4,1.4,2.6.9,5.1-.9,6.9-.5.5-1.1.9-1.8,1-.2,0-.5.2-.6,0-.2-.3,0-.5.2-.7,0,0,.1-.1.2-.2,1.4-1.5,1.5-3,.5-4.7-2.3-3.7-5.5-6.2-10-6.7-.6,0-1.2-.2-1.8-.3-.2,0-.4,0-.5-.2,0-.3.2-.3.4-.4,1.3-.7,2.6-1,4-1.1Z"/>
      <path class="st4" d="M831.9,37.4c2.1,0,4.2,0,6.2-.6,1-.2,1.9-.6,2.7-1.2,1.3-.9,1.4-1.7.5-3-.6-.8-1.3-1.3-2-2-.2-.2-.4-.3-.2-.6.1-.2.4-.2.6-.1,2.3.5,4.5,1.3,6.1,3.2,1.5,1.7,1.2,3.3-.8,4.4-2,1-4.2,1.4-6.4,1.6-3,.2-6,0-9-.8,0,0-.2,0-.3,0-.3,0-.5-.2-.5-.5,0-.3.3-.4.6-.4.8,0,1.7,0,2.5,0Z"/>
      <path class="st4" d="M929.5,178.4c.1-.9.3-1.8.3-2.7.1-1.1.2-2.2.1-3.3-.2-1.7-1.9-2.7-3.4-1.9-.9.5-1.6,1.1-2.2,1.9-.4.4-.8.9-1.2,1.4-.4.4-.7.9-1.1,1.4-.1-.6-.1-1,0-1.4.3-1.2.8-2.4,1.5-3.4.7-1.1,1.5-2.1,2.2-3.2.4-.5.8-.9,1.3-1.2,2.1-1.3,4.3-.6,5.1,1.8.8,2.1.5,4.3-.1,6.4-.4,1.4-1.1,2.7-1.9,3.9-.1.2-.2.4-.6.5Z"/>
      <path class="st4" d="M942.8,133.9c0,.9,0,2-.3,3.1,0,0,0,.2,0,.3,0,.3-.2.6-.5.6-.4,0-.4-.4-.4-.7,0-1.7-.2-3.3-.4-4.9-.2-1.2-.6-2.3-1.3-3.3-.8-1-1.9-1-2.5.2-.4.8-.6,1.8-.8,2.7,0,.3-.2.8-.6.7-.5,0-.4-.5-.3-.9.3-2.2.5-4.3,1-6.5.1-.6.3-1.2.7-1.7.9-1.1,2.4-1.1,3.2,0,.6.7.9,1.6,1.2,2.4.8,2.2,1.1,4.7,1.1,7.9Z"/>
      <path class="st4" d="M925.5,80.6c0,.9-.3,1.9-.9,2.9-.2.2-.3.5-.6.4-.4,0-.3-.4-.3-.7-.2-4.2-1.8-7.8-4.9-10.7-1.4-1.3-3-2.2-4.6-3.1-.2-.1-.7-.2-.6-.6,0-.4.5-.4.7-.4.7-.1,1.4,0,2.1.2,4.7,1.3,9,6.9,9.1,12Z"/>
      <path class="st4" d="M894.6,60.6c-.9,0-1.7,0-2.6-.2-.2,0-.5-.1-.5-.4,0-.3.3-.3.5-.4.8-.3,1.7-.5,2.5-.8.8-.3,1.5-.6,2.2-1.1,1.8-1.3,2.2-3.2,1.1-5.2-.7-1.3-1.8-2.3-2.7-3.4-.2-.3-.7-.5-.5-.9.3-.4.7,0,1,.3,2.8,1.6,5,3.7,6,6.9.7,2.3.1,3.5-2.1,4.4-1.5.6-3.1.9-4.8.8Z"/>
      <path class="st4" d="M938.8,110.6c0,1.5-.2,3.2-.7,4.9,0,.3-.1.8-.6.7-.4,0-.4-.4-.4-.8,0-1.7,0-3.4-.2-5.2-.3-2-.6-4-1.4-5.8-.8-1.8-2-3.3-3.7-4.3-.7-.5-.8-.8-.2-1.4.8-.8,2-.9,2.9-.1,1,.9,1.8,1.9,2.4,3.2,1.3,2.8,1.9,5.6,1.9,8.9Z"/>
      <path class="st4" d="M865.7,34c2.9.1,5.6,1.1,8,2.8,1.1.8,1.8,1.9,2.2,3.2.2.7,0,1.4-.4,2-.3.5-.7.5-1,0-2.2-4.1-6-5.7-10.3-6.4-.6-.1-1.3-.2-1.9-.3-.2,0-.5,0-.5-.2,0-.3.3-.3.5-.4,1-.4,2.1-.5,3.1-.6.1,0,.2,0,.3,0Z"/>
      <path class="st4" d="M938.5,152.1c-.5.7-.9,1.3-1.3,1.9-.2.2-.3.5-.7.3s-.2-.5,0-.7c.6-1.4,1.2-2.7,1.8-4.1.2-.5.6-1.1,1.2-1.1.7,0,1,.7,1.1,1.3.4,1.3.2,2.7,0,4.1-.3,2.6-1.1,5-2.2,7.3,0,.2-.2.5-.4.5-.5.2-.7-.1-.7-.6,0-1.1.2-2.1.4-3.2.2-1.8.5-3.6.7-5.5,0,0,0-.1,0-.3Z"/>
    </g>
  </g>
</svg>